999
DXF generated by OpenJsCad
  0
SECTION
  2
HEADER
  0
ENDSEC
  0
SECTION
  2
TABLES
  0
TABLE
  2
LTYPE
  70
1
  0
LTYPE
  2
CONTINUOUS
  3
Solid Line
  72
65
  73
0
  40
0.0
  0
ENDTAB
  0
TABLE
  2
LAYER
  70
1
  0
LAYER
  2
OpenJsCad
  62
7
  6
continuous
  0
ENDTAB
  0
TABLE
  2
STYLE
  70
0
  0
ENDTAB
  0
TABLE
  2
VIEW
  70
0
  0
ENDTAB
  0
ENDSEC
  0
SECTION
  2
BLOCKS
  0
ENDSEC
  0
SECTION
  2
ENTITIES
  0
LWPOLYLINE
  8
OpenJsCad
  90
38
  70
1
 10
134.84628224322583
 20
6.439277423870971
 30
0.0
 10
135
 20
7.999999999999998
 30
0.0
 10
135
 20
142
 30
0.0
 10
134.84628224322586
 20
143.56072257612902
 30
0.0
 10
134.3910362600903
 20
145.06146745892073
 30
0.0
 10
133.65175689842036
 20
146.4445618641568
 30
0.0
 10
132.6568542494924
 20
147.65685424949237
 30
0.0
 10
131.44456186415684
 20
148.65175689842036
 30
0.0
 10
130.06146745892073
 20
149.3910362600903
 30
0.0
 10
128.56072257612905
 20
149.84628224322583
 30
0.0
 10
127.00000000000001
 20
150
 30
0.0
 10
-97
 20
150
 30
0.0
 10
-98.56072257612902
 20
149.8462822432259
 30
0.0
 10
-100.06146745892073
 20
149.39103626009032
 30
0.0
 10
-101.44456186415681
 20
148.6517568984204
 30
0.0
 10
-102.65685424949237
 20
147.6568542494924
 30
0.0
 10
-103.65175689842036
 20
146.44456186415684
 30
0.0
 10
-104.39103626009029
 20
145.06146745892076
 30
0.0
 10
-104.84628224322586
 20
143.56072257612905
 30
0.0
 10
-105
 20
142.00000000000003
 30
0.0
 10
-105
 20
130.00000000000003
 30
0.0
 10
-104.84628224322586
 20
128.439277423871
 30
0.0
 10
-104.39103626009029
 20
126.9385325410793
 30
0.0
 10
-103.65175689842036
 20
125.5554381358432
 30
0.0
 10
-102.65685424949237
 20
124.34314575050763
 30
0.0
 10
2.343145750507631
 20
2.3431457505076283
 30
0.0
 10
3.5554381358431897
 20
1.3482431015796452
 30
0.0
 10
4.938532541079269
 20
0.6089637399097141
 30
0.0
 10
6.439277423870976
 20
0.15371775677416444
 30
0.0
 10
8
 20
7.776507174585693e-15
 30
0.0
 10
127
 20
4.898587196589414e-16
 30
0.0
 10
128.56072257612902
 20
0.15371775677415694
 30
0.0
 10
130.06146745892073
 20
0.6089637399097055
 30
0.0
 10
131.4445618641568
 20
1.3482431015796366
 30
0.0
 10
132.65685424949237
 20
2.3431457505076185
 30
0.0
 10
133.65175689842036
 20
3.5554381358431826
 30
0.0
 10
134.3910362600903
 20
4.938532541079278
 30
0.0
 10
134.84628224322583
 20
6.439277423870971
 30
0.0
  0
LWPOLYLINE
  8
OpenJsCad
  90
33
  70
1
 10
126.60981935596774
 20
31.96157056080646
 30
0.0
 10
127
 20
32
 30
0.0
 10
127.39018064403226
 20
31.96157056080646
 30
0.0
 10
127.76536686473018
 20
31.847759065022572
 30
0.0
 10
128.11114046603922
 20
31.66293922460509
 30
0.0
 10
128.4142135623731
 20
31.414213562373096
 30
0.0
 10
128.66293922460508
 20
31.111140466039203
 30
0.0
 10
128.8477590650226
 20
30.76536686473018
 30
0.0
 10
128.96157056080645
 20
30.390180644032256
 30
0.0
 10
129
 20
30
 30
0.0
 10
128.96157056080645
 20
29.609819355967744
 30
0.0
 10
128.8477590650226
 20
29.23463313526982
 30
0.0
 10
128.66293922460508
 20
28.888859533960797
 30
0.0
 10
128.4142135623731
 20
28.585786437626904
 30
0.0
 10
128.11114046603922
 20
28.33706077539491
 30
0.0
 10
127.76536686473018
 20
28.152240934977428
 30
0.0
 10
127.39018064403226
 20
28.03842943919354
 30
0.0
 10
127
 20
28
 30
0.0
 10
126.60981935596774
 20
28.03842943919354
 30
0.0
 10
126.23463313526982
 20
28.152240934977428
 30
0.0
 10
125.8888595339608
 20
28.33706077539491
 30
0.0
 10
125.58578643762691
 20
28.585786437626904
 30
0.0
 10
125.33706077539492
 20
28.888859533960797
 30
0.0
 10
125.15224093497743
 20
29.23463313526982
 30
0.0
 10
125.03842943919354
 20
29.609819355967744
 30
0.0
 10
125
 20
30
 30
0.0
 10
125.03842943919354
 20
30.390180644032256
 30
0.0
 10
125.15224093497743
 20
30.76536686473018
 30
0.0
 10
125.33706077539492
 20
31.111140466039206
 30
0.0
 10
125.58578643762691
 20
31.414213562373096
 30
0.0
 10
125.8888595339608
 20
31.66293922460509
 30
0.0
 10
126.23463313526982
 20
31.847759065022572
 30
0.0
 10
126.60981935596774
 20
31.96157056080646
 30
0.0
  0
LWPOLYLINE
  8
OpenJsCad
  90
33
  70
1
 10
-9.390180644032256
 20
31.961570560806468
 30
0.0
 10
-9
 20
32.00000000000001
 30
0.0
 10
-8.609819355967744
 20
31.961570560806468
 30
0.0
 10
-8.234633135269831
 20
31.84775906502258
 30
0.0
 10
-7.888859533960783
 20
31.662939224605097
 30
0.0
 10
-7.5857864376268935
 20
31.414213562373103
 30
0.0
 10
-7.337060775394917
 20
31.11114046603921
 30
0.0
 10
-7.152240934977414
 20
30.765366864730186
 30
0.0
 10
-7.03842943919355
 20
30.390180644032263
 30
0.0
 10
-7
 20
30.000000000000007
 30
0.0
 10
-7.03842943919355
 20
29.60981935596775
 30
0.0
 10
-7.152240934977414
 20
29.234633135269828
 30
0.0
 10
-7.337060775394917
 20
28.888859533960805
 30
0.0
 10
-7.5857864376268935
 20
28.58578643762691
 30
0.0
 10
-7.888859533960783
 20
28.337060775394917
 30
0.0
 10
-8.234633135269831
 20
28.152240934977435
 30
0.0
 10
-8.609819355967744
 20
28.038429439193546
 30
0.0
 10
-9
 20
28.000000000000007
 30
0.0
 10
-9.390180644032256
 20
28.038429439193546
 30
0.0
 10
-9.765366864730169
 20
28.152240934977435
 30
0.0
 10
-10.111140466039217
 20
28.33706077539492
 30
0.0
 10
-10.414213562373106
 20
28.585786437626915
 30
0.0
 10
-10.662939224605083
 20
28.888859533960808
 30
0.0
 10
-10.847759065022586
 20
29.23463313526983
 30
0.0
 10
-10.96157056080645
 20
29.609819355967755
 30
0.0
 10
-11
 20
30.00000000000001
 30
0.0
 10
-10.96157056080645
 20
30.390180644032267
 30
0.0
 10
-10.847759065022586
 20
30.76536686473019
 30
0.0
 10
-10.662939224605083
 20
31.111140466039217
 30
0.0
 10
-10.414213562373106
 20
31.414213562373106
 30
0.0
 10
-10.111140466039217
 20
31.6629392246051
 30
0.0
 10
-9.765366864730169
 20
31.84775906502258
 30
0.0
 10
-9.390180644032256
 20
31.961570560806468
 30
0.0
  0
LWPOLYLINE
  8
OpenJsCad
  90
33
  70
1
 10
126.60981935596774
 20
121.96157056080646
 30
0.0
 10
127
 20
122
 30
0.0
 10
127.39018064403227
 20
121.96157056080646
 30
0.0
 10
127.76536686473018
 20
121.84775906502257
 30
0.0
 10
128.11114046603922
 20
121.6629392246051
 30
0.0
 10
128.4142135623731
 20
121.41421356237309
 30
0.0
 10
128.6629392246051
 20
121.1111404660392
 30
0.0
 10
128.8477590650226
 20
120.76536686473018
 30
0.0
 10
128.96157056080648
 20
120.39018064403226
 30
0.0
 10
129
 20
120
 30
0.0
 10
128.96157056080648
 20
119.60981935596774
 30
0.0
 10
128.8477590650226
 20
119.23463313526982
 30
0.0
 10
128.6629392246051
 20
118.8888595339608
 30
0.0
 10
128.4142135623731
 20
118.58578643762691
 30
0.0
 10
128.11114046603922
 20
118.3370607753949
 30
0.0
 10
127.76536686473018
 20
118.15224093497743
 30
0.0
 10
127.39018064403227
 20
118.03842943919354
 30
0.0
 10
127
 20
118
 30
0.0
 10
126.60981935596774
 20
118.03842943919354
 30
0.0
 10
126.23463313526983
 20
118.15224093497743
 30
0.0
 10
125.8888595339608
 20
118.3370607753949
 30
0.0
 10
125.58578643762691
 20
118.58578643762691
 30
0.0
 10
125.33706077539492
 20
118.8888595339608
 30
0.0
 10
125.15224093497743
 20
119.23463313526982
 30
0.0
 10
125.03842943919355
 20
119.60981935596774
 30
0.0
 10
125
 20
120
 30
0.0
 10
125.03842943919355
 20
120.39018064403226
 30
0.0
 10
125.15224093497743
 20
120.76536686473018
 30
0.0
 10
125.33706077539492
 20
121.1111404660392
 30
0.0
 10
125.58578643762691
 20
121.41421356237309
 30
0.0
 10
125.8888595339608
 20
121.6629392246051
 30
0.0
 10
126.23463313526983
 20
121.84775906502257
 30
0.0
 10
126.60981935596774
 20
121.96157056080646
 30
0.0
  0
LWPOLYLINE
  8
OpenJsCad
  90
33
  70
1
 10
-87.39018064403226
 20
121.96157056080648
 30
0.0
 10
-87
 20
122.00000000000001
 30
0.0
 10
-86.60981935596774
 20
121.96157056080648
 30
0.0
 10
-86.23463313526983
 20
121.84775906502259
 30
0.0
 10
-85.88885953396078
 20
121.66293922460511
 30
0.0
 10
-85.5857864376269
 20
121.4142135623731
 30
0.0
 10
-85.33706077539492
 20
121.11114046603922
 30
0.0
 10
-85.15224093497741
 20
120.7653668647302
 30
0.0
 10
-85.03842943919355
 20
120.39018064403227
 30
0.0
 10
-85
 20
120.00000000000001
 30
0.0
 10
-85.03842943919355
 20
119.60981935596776
 30
0.0
 10
-85.15224093497741
 20
119.23463313526983
 30
0.0
 10
-85.33706077539492
 20
118.88885953396081
 30
0.0
 10
-85.5857864376269
 20
118.58578643762692
 30
0.0
 10
-85.88885953396078
 20
118.33706077539492
 30
0.0
 10
-86.23463313526983
 20
118.15224093497744
 30
0.0
 10
-86.60981935596774
 20
118.03842943919355
 30
0.0
 10
-87
 20
118.00000000000001
 30
0.0
 10
-87.39018064403226
 20
118.03842943919355
 30
0.0
 10
-87.76536686473017
 20
118.15224093497744
 30
0.0
 10
-88.11114046603922
 20
118.33706077539492
 30
0.0
 10
-88.4142135623731
 20
118.58578643762692
 30
0.0
 10
-88.66293922460508
 20
118.88885953396081
 30
0.0
 10
-88.84775906502259
 20
119.23463313526983
 30
0.0
 10
-88.96157056080645
 20
119.60981935596776
 30
0.0
 10
-89
 20
120.00000000000001
 30
0.0
 10
-88.96157056080645
 20
120.39018064403227
 30
0.0
 10
-88.84775906502259
 20
120.7653668647302
 30
0.0
 10
-88.66293922460508
 20
121.11114046603922
 30
0.0
 10
-88.4142135623731
 20
121.4142135623731
 30
0.0
 10
-88.11114046603922
 20
121.66293922460511
 30
0.0
 10
-87.76536686473017
 20
121.84775906502259
 30
0.0
 10
-87.39018064403226
 20
121.96157056080648
 30
0.0
  0
LWPOLYLINE
  8
OpenJsCad
  90
33
  70
1
 10
-121.96157056080646
 20
86.60981935596774
 30
0.0
 10
-122
 20
87
 30
0.0
 10
-121.96157056080646
 20
87.39018064403226
 30
0.0
 10
-121.84775906502257
 20
87.76536686473017
 30
0.0
 10
-121.6629392246051
 20
88.11114046603922
 30
0.0
 10
-121.41421356237309
 20
88.4142135623731
 30
0.0
 10
-121.1111404660392
 20
88.66293922460508
 30
0.0
 10
-120.76536686473018
 20
88.84775906502259
 30
0.0
 10
-120.39018064403226
 20
88.96157056080645
 30
0.0
 10
-120
 20
89
 30
0.0
 10
-119.60981935596774
 20
88.96157056080645
 30
0.0
 10
-119.23463313526982
 20
88.84775906502259
 30
0.0
 10
-118.8888595339608
 20
88.66293922460508
 30
0.0
 10
-118.58578643762691
 20
88.4142135623731
 30
0.0
 10
-118.3370607753949
 20
88.11114046603922
 30
0.0
 10
-118.15224093497743
 20
87.76536686473017
 30
0.0
 10
-118.03842943919354
 20
87.39018064403226
 30
0.0
 10
-118
 20
87
 30
0.0
 10
-118.03842943919354
 20
86.60981935596774
 30
0.0
 10
-118.15224093497743
 20
86.23463313526983
 30
0.0
 10
-118.3370607753949
 20
85.88885953396078
 30
0.0
 10
-118.58578643762691
 20
85.5857864376269
 30
0.0
 10
-118.8888595339608
 20
85.33706077539492
 30
0.0
 10
-119.23463313526982
 20
85.15224093497741
 30
0.0
 10
-119.60981935596774
 20
85.03842943919355
 30
0.0
 10
-120
 20
85
 30
0.0
 10
-120.39018064403226
 20
85.03842943919355
 30
0.0
 10
-120.76536686473018
 20
85.15224093497741
 30
0.0
 10
-121.1111404660392
 20
85.33706077539492
 30
0.0
 10
-121.41421356237309
 20
85.5857864376269
 30
0.0
 10
-121.6629392246051
 20
85.88885953396078
 30
0.0
 10
-121.84775906502257
 20
86.23463313526983
 30
0.0
 10
-121.96157056080646
 20
86.60981935596774
 30
0.0
  0
LWPOLYLINE
  8
OpenJsCad
  90
33
  70
1
 10
-121.96157056080646
 20
-127.39018064403226
 30
0.0
 10
-122
 20
-127
 30
0.0
 10
-121.96157056080646
 20
-126.60981935596774
 30
0.0
 10
-121.84775906502257
 20
-126.23463313526982
 30
0.0
 10
-121.6629392246051
 20
-125.8888595339608
 30
0.0
 10
-121.41421356237309
 20
-125.58578643762691
 30
0.0
 10
-121.1111404660392
 20
-125.33706077539492
 30
0.0
 10
-120.76536686473018
 20
-125.15224093497743
 30
0.0
 10
-120.39018064403226
 20
-125.03842943919354
 30
0.0
 10
-120
 20
-125
 30
0.0
 10
-119.60981935596774
 20
-125.03842943919354
 30
0.0
 10
-119.23463313526982
 20
-125.15224093497743
 30
0.0
 10
-118.8888595339608
 20
-125.33706077539492
 30
0.0
 10
-118.58578643762691
 20
-125.58578643762691
 30
0.0
 10
-118.3370607753949
 20
-125.8888595339608
 30
0.0
 10
-118.15224093497743
 20
-126.23463313526982
 30
0.0
 10
-118.03842943919354
 20
-126.60981935596774
 30
0.0
 10
-118
 20
-127
 30
0.0
 10
-118.03842943919354
 20
-127.39018064403226
 30
0.0
 10
-118.15224093497743
 20
-127.76536686473018
 30
0.0
 10
-118.3370607753949
 20
-128.11114046603922
 30
0.0
 10
-118.58578643762691
 20
-128.4142135623731
 30
0.0
 10
-118.8888595339608
 20
-128.66293922460508
 30
0.0
 10
-119.23463313526982
 20
-128.8477590650226
 30
0.0
 10
-119.60981935596774
 20
-128.96157056080645
 30
0.0
 10
-120
 20
-129
 30
0.0
 10
-120.39018064403226
 20
-128.96157056080645
 30
0.0
 10
-120.76536686473018
 20
-128.8477590650226
 30
0.0
 10
-121.1111404660392
 20
-128.66293922460508
 30
0.0
 10
-121.41421356237309
 20
-128.4142135623731
 30
0.0
 10
-121.6629392246051
 20
-128.11114046603922
 30
0.0
 10
-121.84775906502257
 20
-127.76536686473018
 30
0.0
 10
-121.96157056080646
 20
-127.39018064403226
 30
0.0
  0
LWPOLYLINE
  8
OpenJsCad
  90
33
  70
1
 10
-31.96157056080646
 20
8.609819355967744
 30
0.0
 10
-32
 20
9
 30
0.0
 10
-31.96157056080646
 20
9.390180644032256
 30
0.0
 10
-31.847759065022572
 20
9.765366864730169
 30
0.0
 10
-31.66293922460509
 20
10.111140466039217
 30
0.0
 10
-31.414213562373096
 20
10.414213562373106
 30
0.0
 10
-31.111140466039206
 20
10.662939224605083
 30
0.0
 10
-30.76536686473018
 20
10.847759065022586
 30
0.0
 10
-30.390180644032256
 20
10.96157056080645
 30
0.0
 10
-30
 20
11
 30
0.0
 10
-29.609819355967744
 20
10.96157056080645
 30
0.0
 10
-29.23463313526982
 20
10.847759065022586
 30
0.0
 10
-28.888859533960797
 20
10.662939224605083
 30
0.0
 10
-28.585786437626904
 20
10.414213562373106
 30
0.0
 10
-28.33706077539491
 20
10.111140466039217
 30
0.0
 10
-28.152240934977428
 20
9.765366864730169
 30
0.0
 10
-28.03842943919354
 20
9.390180644032256
 30
0.0
 10
-28
 20
9
 30
0.0
 10
-28.03842943919354
 20
8.609819355967744
 30
0.0
 10
-28.152240934977428
 20
8.234633135269831
 30
0.0
 10
-28.33706077539491
 20
7.888859533960783
 30
0.0
 10
-28.585786437626904
 20
7.5857864376268935
 30
0.0
 10
-28.888859533960797
 20
7.337060775394917
 30
0.0
 10
-29.23463313526982
 20
7.152240934977414
 30
0.0
 10
-29.609819355967744
 20
7.03842943919355
 30
0.0
 10
-30
 20
7
 30
0.0
 10
-30.390180644032256
 20
7.03842943919355
 30
0.0
 10
-30.76536686473018
 20
7.152240934977414
 30
0.0
 10
-31.111140466039203
 20
7.337060775394917
 30
0.0
 10
-31.414213562373096
 20
7.5857864376268935
 30
0.0
 10
-31.66293922460509
 20
7.888859533960783
 30
0.0
 10
-31.847759065022572
 20
8.234633135269831
 30
0.0
 10
-31.96157056080646
 20
8.609819355967744
 30
0.0
  0
LWPOLYLINE
  8
OpenJsCad
  90
33
  70
1
 10
-31.96157056080646
 20
-127.39018064403226
 30
0.0
 10
-32
 20
-127
 30
0.0
 10
-31.96157056080646
 20
-126.60981935596774
 30
0.0
 10
-31.847759065022572
 20
-126.23463313526982
 30
0.0
 10
-31.66293922460509
 20
-125.8888595339608
 30
0.0
 10
-31.414213562373096
 20
-125.58578643762691
 30
0.0
 10
-31.111140466039206
 20
-125.33706077539492
 30
0.0
 10
-30.76536686473018
 20
-125.15224093497743
 30
0.0
 10
-30.390180644032256
 20
-125.03842943919354
 30
0.0
 10
-30
 20
-125
 30
0.0
 10
-29.609819355967744
 20
-125.03842943919354
 30
0.0
 10
-29.23463313526982
 20
-125.15224093497743
 30
0.0
 10
-28.888859533960797
 20
-125.33706077539492
 30
0.0
 10
-28.585786437626904
 20
-125.58578643762691
 30
0.0
 10
-28.33706077539491
 20
-125.8888595339608
 30
0.0
 10
-28.152240934977428
 20
-126.23463313526982
 30
0.0
 10
-28.03842943919354
 20
-126.60981935596774
 30
0.0
 10
-28
 20
-127
 30
0.0
 10
-28.03842943919354
 20
-127.39018064403226
 30
0.0
 10
-28.152240934977428
 20
-127.76536686473018
 30
0.0
 10
-28.33706077539491
 20
-128.11114046603922
 30
0.0
 10
-28.585786437626904
 20
-128.4142135623731
 30
0.0
 10
-28.888859533960797
 20
-128.66293922460508
 30
0.0
 10
-29.23463313526982
 20
-128.8477590650226
 30
0.0
 10
-29.609819355967744
 20
-128.96157056080645
 30
0.0
 10
-30
 20
-129
 30
0.0
 10
-30.390180644032256
 20
-128.96157056080645
 30
0.0
 10
-30.76536686473018
 20
-128.8477590650226
 30
0.0
 10
-31.111140466039203
 20
-128.66293922460508
 30
0.0
 10
-31.414213562373096
 20
-128.4142135623731
 30
0.0
 10
-31.66293922460509
 20
-128.11114046603922
 30
0.0
 10
-31.847759065022572
 20
-127.76536686473018
 30
0.0
 10
-31.96157056080646
 20
-127.39018064403226
 30
0.0
  0
LWPOLYLINE
  8
OpenJsCad
  90
38
  70
1
 10
-6.439277423870971
 20
-134.84628224322583
 30
0.0
 10
-4.938532541079278
 20
-134.3910362600903
 30
0.0
 10
-3.5554381358431826
 20
-133.65175689842036
 30
0.0
 10
-2.3431457505076185
 20
-132.65685424949237
 30
0.0
 10
-1.3482431015796363
 20
-131.4445618641568
 30
0.0
 10
-0.6089637399097052
 20
-130.06146745892073
 30
0.0
 10
-0.15371775677415656
 20
-128.56072257612902
 30
0.0
 10
0
 20
-127
 30
0.0
 10
0
 20
-8
 30
0.0
 10
-0.15371775677415656
 20
-6.439277423870976
 30
0.0
 10
-0.6089637399097061
 20
-4.938532541079269
 30
0.0
 10
-1.3482431015796372
 20
-3.5554381358431897
 30
0.0
 10
-2.3431457505076203
 20
-2.343145750507631
 30
0.0
 10
-124.34314575050762
 20
102.65685424949237
 30
0.0
 10
-125.55543813584319
 20
103.65175689842036
 30
0.0
 10
-126.93853254107928
 20
104.39103626009029
 30
0.0
 10
-128.43927742387098
 20
104.84628224322586
 30
0.0
 10
-130
 20
105
 30
0.0
 10
-142
 20
105
 30
0.0
 10
-143.56072257612902
 20
104.84628224322586
 30
0.0
 10
-145.06146745892073
 20
104.39103626009029
 30
0.0
 10
-146.4445618641568
 20
103.65175689842036
 30
0.0
 10
-147.65685424949237
 20
102.65685424949237
 30
0.0
 10
-148.65175689842036
 20
101.44456186415681
 30
0.0
 10
-149.3910362600903
 20
100.06146745892073
 30
0.0
 10
-149.84628224322586
 20
98.56072257612902
 30
0.0
 10
-150
 20
97
 30
0.0
 10
-150
 20
-127
 30
0.0
 10
-149.84628224322583
 20
-128.56072257612902
 30
0.0
 10
-149.3910362600903
 20
-130.06146745892073
 30
0.0
 10
-148.65175689842036
 20
-131.4445618641568
 30
0.0
 10
-147.65685424949237
 20
-132.65685424949237
 30
0.0
 10
-146.4445618641568
 20
-133.65175689842036
 30
0.0
 10
-145.06146745892073
 20
-134.3910362600903
 30
0.0
 10
-143.56072257612902
 20
-134.84628224322586
 30
0.0
 10
-142
 20
-135
 30
0.0
 10
-7.999999999999998
 20
-135
 30
0.0
 10
-6.439277423870971
 20
-134.84628224322583
 30
0.0
  0
ENDSEC
  0
EOF
